<svg height="512pt" viewBox="0 0 512 512" width="512pt" xmlns="http://www.w3.org/2000/svg"><path d="m512 30.90625v450.1875c0 17.070312-13.835938 30.90625-30.90625 30.90625h-450.1875c-17.070312 0-30.90625-13.835938-30.90625-30.90625v-450.1875c0-17.070312 13.835938-30.90625 30.90625-30.90625h450.1875c17.070312 0 30.90625 13.835938 30.90625 30.90625zm0 0" fill="#6186a5"/><path d="m64.222656 512h-33.316406c-17.070312 0-30.90625-13.835938-30.90625-30.90625v-450.1875c0-17.070312 13.835938-30.90625 30.90625-30.90625h33.316406c-17.070312 0-30.90625 13.835938-30.90625 30.90625v450.1875c0 17.070312 13.835938 30.90625 30.90625 30.90625zm0 0" fill="#84afc4"/><path d="m512 30.90625v450.1875c0 17.070312-13.835938 30.90625-30.90625 30.90625h-199.03125c152.582031-175.789062 169.96875-420.992188 170.824219-512h28.207031c17.070312 0 30.90625 13.835938 30.90625 30.90625zm0 0" fill="#4e768e"/><path d="m287.9375 216.441406v112.339844c0 18.625 15.101562 33.730469 33.726562 33.730469h22.933594c5.109375 0 9.363282 3.71875 10.15625 8.609375.09375.546875.144532 1.113281.144532 1.691406v43.265625c0 5.6875-4.617188 10.304687-10.300782 10.304687h-29.238281c-50.417969 0-91.296875-40.867187-91.296875-91.296874v-118.644532h-56.660156c-5.683594 0-10.300782-4.617187-10.300782-10.300781v-43.269531c0-2.84375 1.15625-5.417969 3.019532-7.28125 1.863281-1.867188 4.4375-3.019532 7.28125-3.019532 15.648437 0 29.8125-6.347656 40.066406-16.597656 10.25-10.25 16.59375-24.414062 16.59375-40.0625 0-5.6875 4.617188-10.300781 10.300781-10.300781h43.269531c5.6875 0 10.300782 4.613281 10.300782 10.300781v56.660156h56.660156c5.6875 0 10.304688 4.613282 10.304688 10.300782v43.269531c0 5.6875-4.617188 10.300781-10.304688 10.300781zm0 0" fill="#deefff"/><path d="m354.898438 406.375v9.703125c0 5.6875-4.617188 10.304687-10.304688 10.304687h-1.050781c3.925781-6.636718 7.707031-13.300781 11.355469-20.007812zm0 0" fill="#b8daef"/></svg>