<svg height="512pt" viewBox="0 0 512 512" width="512pt" xmlns="http://www.w3.org/2000/svg"><path d="m512 30.90625v450.1875c0 17.070312-13.835938 30.90625-30.90625 30.90625h-450.1875c-17.070312 0-30.90625-13.835938-30.90625-30.90625v-450.1875c0-17.070312 13.835938-30.90625 30.90625-30.90625h450.1875c17.070312 0 30.90625 13.835938 30.90625 30.90625zm0 0" fill="#deefff"/><path d="m512 30.90625v450.1875c0 17.070312-13.835938 30.90625-30.90625 30.90625h-199.03125c152.582031-175.789062 169.96875-420.992188 170.824219-512h28.207031c17.070312 0 30.90625 13.835938 30.90625 30.90625zm0 0" fill="#b8daef"/><path d="m64.222656 512h-33.316406c-17.070312 0-30.90625-13.835938-30.90625-30.90625v-450.1875c0-17.070312 13.835938-30.90625 30.90625-30.90625h33.316406c-17.070312 0-30.90625 13.835938-30.90625 30.90625v450.1875c0 17.070312 13.835938 30.90625 30.90625 30.90625zm0 0" fill="#f0f8ff"/><path d="m203.480469 326.414062-10.496094 31.894532-18.648437 56.679687c-1.492188 4.5625-6.746094 6.664063-10.980469 4.398438l-23.191407-12.402344-13.84375-7.40625-12.703124-6.789063c-4.574219-2.441406-5.488282-8.613281-1.820313-12.28125l45.59375-45.585937 28.804687-28.804687zm0 0" fill="#1680f6"/><path d="m203.480469 326.417969-10.496094 31.894531c-12.1875-5.421875-23.59375-12.683594-33.792969-21.59375-.636718-.558594-1.246094-1.15625-1.800781-1.792969l28.804687-28.804687zm0 0" fill="#006fd3"/><path d="m337.003906 238.726562c-3.492187 17.164063-16.320312 31.535157-33.964844 36.210938-.15625.042969-.308593.082031-.453124.125-43.226563 11.175781-95.40625-.328125-131.257813-26.421875-5.34375-3.894531-7.847656-9.625-7.847656-15.300781 0-8.074219 5.078125-16.039063 14.195312-18.398438-7.613281-4.550781-14.628906-10.042968-20.859375-16.617187-3.6875-3.894531-5.347656-8.589844-5.347656-13.214844 0-9.695313 7.324219-19.007813 18.5625-19.523437-5.324219-5.046876-10.074219-11-14.101562-18.121094-5.253907-9.28125-9.28125-20.542969-11.808594-34.316406-1.039063-5.738282 4.75-10.332032 10.109375-8.023438 19.664062 8.4375 60.996093 24.722656 104.851562 33.140625 42.234375 8.117187 74.222657 42.835937 78.570313 85.617187l.050781.527344c.496094 4.878906.238281 9.703125-.699219 14.316406zm0 0" fill="#1680f6"/><path d="m337.003906 238.726562c-3.492187 17.164063-16.320312 31.535157-33.964844 36.210938-.15625.042969-.308593.082031-.453124.125-43.226563 11.175781-95.40625-.328125-131.257813-26.421875-5.34375-3.894531-7.847656-9.625-7.847656-15.300781 0-8.074219 5.078125-16.039063 14.195312-18.398438-7.613281-4.550781-14.628906-10.042968-20.859375-16.617187-3.6875-3.894531-5.347656-8.589844-5.347656-13.214844 0-9.695313 7.324219-19.007813 18.5625-19.523437-5.324219-5.046876-10.074219-11-14.101562-18.121094 7.878906.359375 16.171874.585937 24.691406.585937 11.992187 0 23.570312-.441406 34.410156-1.308593 3.121094-.246094 6.273438-.378907 9.394531-.378907 23.394531 0 45.984375 6.914063 65.3125 19.984375 19.5 13.1875 34.328125 31.75 42.867188 53.671875l.195312.515625c2.328125 5.976563 3.707031 12.105469 4.203125 18.191406zm0 0" fill="#006fd3"/><path d="m338.683594 123.101562 56.304687-28.335937c5.453125-2.746094 11.546875 2.472656 9.613281 8.265625-4.539062 13.574219-16.875 34.285156-50.300781 51.105469zm0 0" fill="#f8b159"/><path d="m350.839844 130.898438 62.878906 4.292968c6.097656.414063 8.679688 8.011719 4.058594 12.011719-10.824219 9.371094-31.988282 20.902344-69.304688 18.355469zm0 0" fill="#f8b159"/><path d="m334.117188 320.976562c-45.574219 45.574219-118.292969 47.460938-166.105469 5.65625-3.378907-2.945312-3.574219-8.136718-.402344-11.300781l166.507813-166.507812c47.535156 47.542969 47.535156 124.621093 0 172.152343zm0 0" fill="#1680f6"/><path d="m306.097656 297.964844-.484375.285156c-24.816406 14.308594-56.0625 22.179688-87.988281 22.179688-.007812 0-.007812 0-.007812 0-16.886719 0-33.410157-2.171876-48.789063-6.3125l135.808594-135.808594c12.238281 11.617187 21.757812 25.773437 27.96875 41.710937l.195312.515625c11.363281 29.164063.132813 61.726563-26.703125 77.429688zm0 0" fill="#006fd3"/><path d="m386.421875 151.183594c0 32.347656-25.808594 58.660156-57.957031 59.460937-.507813.011719-1.023438.019531-1.527344.019531-31.71875 0-57.628906-24.804687-59.390625-56.070312-.070313-1.125-.101563-2.265625-.101563-3.410156 0-32.863282 26.628907-59.492188 59.492188-59.492188 32.851562 0 59.484375 26.628906 59.484375 59.492188zm0 0" fill="#439ef4"/><path d="m328.464844 210.644531c-.507813.011719-1.023438.019531-1.527344.019531-31.71875 0-57.628906-24.804687-59.390625-56.070312 7.75 3.078125 15.1875 7.015625 22.191406 11.753906 16.65625 11.257813 29.894531 26.445313 38.726563 44.296875zm0 0" fill="#1680f6"/><path d="m299.328125 286.410156c-.132813.082032-.277344.164063-.421875.246094-48.355469 27.890625-118.492188 26.859375-163.675781-1.191406-4.972657-3.082032-4.871094-10.355469.199219-13.269532l1.574218-.910156 18.121094-10.464844h.011719l.140625-.082031c-17.265625-4.75-33.253906-13.628906-46.921875-28-3.925781-4.132812-2.246094-10.929687 3.171875-12.703125l2.566406-.832031 19.449219-6.355469.113281-.042968c-15.730469-8.332032-29.671875-22.5-41.023438-45.9375-2.667968-5.519532 1.925782-11.804688 8.015626-10.980469 22.28125 3.039062 68.671874 7.941406 115.453124 4.203125 45.222657-3.617188 87.554688 22.507812 104.015626 64.789062l.207031.515625c8.851562 22.734375.0625 48.683594-20.996094 61.015625zm0 0" fill="#439ef4"/><path d="m334.910156 145.832031c4.246094 0 7.703125-3.433593 7.726563-7.683593.019531-4.269532-3.417969-7.746094-7.6875-7.769532h-.097657c-.011718 0-.027343 0-.039062 0-4.25 0-7.65625 3.433594-7.679688 7.6875-.023437 4.265625 3.464844 7.742188 7.734376 7.765625zm0 0" fill="#006fd3"/><path d="m202.535156 234.921875c.195313 4.253906-3.09375 7.882813-7.355468 8.078125-1.578126.070312-3.152344.113281-4.71875.113281-33.296876 0-63.222657-16.101562-64.53125-16.824219-1.914063-1.039062-7.292969-3.976562-11.835938-7.089843l19.449219-6.355469c2.832031 1.484375 31.597656 16.101562 60.902343 14.722656 4.285157-.207031 7.882813 3.089844 8.089844 7.355469zm0 0" fill="#1680f6"/><path d="m208.550781 282.90625c-2.226562.125-4.460937.1875-6.707031.1875-25.742188 0-52.125-7.714844-53.332031-8.078125-1.773438-.523437-6.65625-1.957031-11.507813-3.730469l18.121094-10.464844h.011719c6.695312 1.78125 27.308593 6.828126 46.738281 6.828126 1.945312 0 3.882812-.050782 5.789062-.164063 4.257813-.246094 7.914063 3.007813 8.148438 7.261719.246094 4.269531-3.007812 7.914062-7.261719 8.160156zm0 0" fill="#1680f6"/><path d="m167.003906 373.152344-26.835937 33.832031-13.847657-7.410156 28.578126-36.023438c2.648437-3.335937 7.507812-3.902343 10.847656-1.246093 3.347656 2.648437 3.902344 7.507812 1.257812 10.847656zm0 0" fill="#006fd3"/></svg>