<svg height="512pt" viewBox="0 0 512 512" width="512pt" xmlns="http://www.w3.org/2000/svg"><path d="m512 30.90625v450.1875c0 17.070312-13.835938 30.90625-30.90625 30.90625h-450.1875c-17.070312 0-30.90625-13.835938-30.90625-30.90625v-450.1875c0-17.070312 13.835938-30.90625 30.90625-30.90625h450.1875c17.070312 0 30.90625 13.835938 30.90625 30.90625zm0 0" fill="#38bdce"/><path d="m64.222656 512h-33.316406c-17.070312 0-30.90625-13.835938-30.90625-30.90625v-450.1875c0-17.070312 13.835938-30.90625 30.90625-30.90625h33.316406c-17.070312 0-30.90625 13.835938-30.90625 30.90625v450.1875c0 17.070312 13.835938 30.90625 30.90625 30.90625zm0 0" fill="#55ced9"/><path d="m512 30.90625v450.1875c0 17.070312-13.835938 30.90625-30.90625 30.90625h-199.03125c152.582031-175.789062 169.96875-420.992188 170.824219-512h28.207031c17.070312 0 30.90625 13.835938 30.90625 30.90625zm0 0" fill="#06a9bf"/><path d="m389.605469 216.820312c0 97.351563-78.921875 174.75-115.453125 205.359376-10.507813 8.804687-25.796875 8.804687-36.304688 0-36.527344-30.609376-115.453125-108.007813-115.453125-205.359376 0-73.785156 59.816407-133.605468 133.605469-133.605468s133.605469 59.820312 133.605469 133.605468zm0 0" fill="#deefff"/><path d="m256 301.5625c-51.472656 0-93.347656-41.875-93.347656-93.347656 0-51.476563 41.875-93.351563 93.347656-93.351563s93.347656 41.875 93.347656 93.351563c0 51.472656-41.875 93.347656-93.347656 93.347656zm0 0" fill="#b8daef"/><path d="m335.191406 208.214844c0 43.734375-35.453125 79.191406-79.191406 79.191406s-79.191406-35.457031-79.191406-79.191406c0-43.738282 35.453125-79.195313 79.191406-79.195313s79.191406 35.457031 79.191406 79.195313zm0 0" fill="#f75820"/><path d="m265.675781 188.5c0 12.738281-10.328125 23.0625-23.0625 23.0625-12.738281 0-23.0625-10.324219-23.0625-23.0625s10.324219-23.0625 23.0625-23.0625c12.734375 0 23.0625 10.324219 23.0625 23.0625zm0 0" fill="#deefff"/></svg>