<svg height="512pt" viewBox="0 0 512 512" width="512pt" xmlns="http://www.w3.org/2000/svg"><path d="m436 0h-360c-41.398438 0-76 34.601562-76 76v360c0 41.398438 34.601562 76 76 76h360c41.398438 0 76-34.601562 76-76v-360c0-41.398438-34.601562-76-76-76zm0 0" fill="#537983"/><path d="m512 76v360c0 41.398438-34.601562 76-76 76h-180v-512h180c41.398438 0 76 34.601562 76 76zm0 0" fill="#3e5959"/><path d="m355 246.800781c8.402344 0 15-6.402343 15-14.800781v-72c0-8.402344-6.597656-14.800781-15-14.800781h-57.199219v-57.199219c0-8.398438-6.402343-15-14.800781-15h-52.800781c-7.796875 0-13.5 4.5-15.296875 15.898438-5.402344 33.601562-12.601563 57.601562-53.101563 60.902343-7.800781.597657-13.800781 7.199219-13.800781 15v67.199219c0 8.398438 6.601562 14.800781 15 14.800781h33v97.996094c0 34.800781 18.898438 71.699219 60 87.902344 13.5 5.402343 30 8.699219 48.601562 8.699219 26.699219 0 51-2.402344 51.898438-2.402344 7.5-.898438 13.5-7.199219 13.5-15v-71.996094c0-8.402344-6.601562-15-15-15h-45.601562c-7.5 0-10.5-1.199219-10.5-1.199219-.300782-.601562-1.097657-2.699219-1.097657-10.199219v-78.800781zm0 0" fill="#edf5ff"/><path d="m297.800781 246.800781v78.800781c0 7.5.800781 9.597657 1.097657 10.199219 0 0 3.003906 1.199219 10.503906 1.199219h45.597656c8.402344 0 15 6.597656 15 15v72c0 7.800781-6 14.101562-13.5 15-.898438 0-25.199219 2.398438-51.898438 2.398438-18.601562 0-35.097656-3.296876-48.601562-8.699219v-359.699219h27.003906c8.398438 0 14.796875 6.601562 14.796875 15v57.199219h57.199219c8.402344 0 15 6.398437 15 14.800781v72c0 8.398438-6.597656 14.800781-15 14.800781zm0 0" fill="#d7e9ff"/></svg>