<svg height="512pt" viewBox="0 0 512 512" width="512pt" xmlns="http://www.w3.org/2000/svg"><path d="m512 30.90625v450.1875c0 17.070312-13.835938 30.90625-30.90625 30.90625h-450.1875c-17.070312 0-30.90625-13.835938-30.90625-30.90625v-450.1875c0-17.070312 13.835938-30.90625 30.90625-30.90625h450.1875c17.070312 0 30.90625 13.835938 30.90625 30.90625zm0 0" fill="#0dd1ff"/><path d="m512 30.90625v450.1875c0 17.070312-13.835938 30.90625-30.90625 30.90625h-199.03125c152.582031-175.789062 169.96875-420.992188 170.824219-512h28.207031c17.070312 0 30.90625 13.835938 30.90625 30.90625zm0 0" fill="#00b1f7"/><path d="m312.949219 512h-113.898438l49.664063-49.664062c4.023437-4.023438 10.546875-4.023438 14.570312 0zm0 0" fill="#deefff"/><path d="m312.949219 512h-30.886719c4.8125-5.542969 9.5-11.167969 14.042969-16.84375zm0 0" fill="#b8daef"/><path d="m64.222656 512h-33.316406c-17.070312 0-30.90625-13.835938-30.90625-30.90625v-450.1875c0-17.070312 13.835938-30.90625 30.90625-30.90625h33.316406c-17.070312 0-30.90625 13.835938-30.90625 30.90625v450.1875c0 17.070312 13.835938 30.90625 30.90625 30.90625zm0 0" fill="#48e5ff"/><path d="m351.882812 182.140625v-19.285156c0-4.992188-4.046874-9.035157-9.035156-9.035157h-32.285156v-32.285156c0-4.988281-4.046875-9.035156-9.035156-9.035156h-19.289063c-4.988281 0-9.035156 4.046875-9.035156 9.035156v32.285156h-34.40625v-32.285156c0-4.988281-4.046875-9.035156-9.039063-9.035156h-19.285156c-4.988281 0-9.035156 4.046875-9.035156 9.035156v32.285156h-32.285156c-4.988282 0-9.035156 4.042969-9.035156 9.035157v19.285156c0 4.992187 4.046874 9.035156 9.035156 9.035156h32.285156v34.410157h-32.285156c-4.988282 0-9.035156 4.046874-9.035156 9.035156v19.285156c0 4.992188 4.046874 9.039062 9.035156 9.039062h32.285156v32.28125c0 4.992188 4.042969 9.035157 9.035156 9.035157h19.285156c4.992188 0 9.039063-4.042969 9.039063-9.035157v-32.28125h34.40625v32.28125c0 4.992188 4.046875 9.035157 9.035156 9.035157h19.289063c4.988281 0 9.035156-4.042969 9.035156-9.035157v-32.28125h32.28125c4.992188 0 9.039062-4.046874 9.039062-9.039062v-19.285156c0-4.988282-4.046874-9.035156-9.039062-9.035156h-32.28125v-34.410157h32.28125c4.992188 0 9.039062-4.042969 9.039062-9.035156zm-78.679687 43.445313h-34.40625v-34.410157h34.40625zm0 0" fill="#deefff"/><path d="m391.398438 339.589844c-2.667969 2.933594-5.429688 5.777344-8.273438 8.507812-3.574219 3.460938-7.273438 6.757813-11.09375 9.878906-32.503906 26.628907-73.566406 41.515626-116.03125 41.515626-51.425781 0-100.78125-21.828126-135.394531-59.902344-6.882813-7.574219-6.328125-19.285156 1.234375-26.167969 7.570312-6.882813 19.285156-6.324219 26.167968 1.234375 27.617188 30.371094 66.980469 47.789062 107.992188 47.789062s80.375-17.417968 107.996094-47.789062c6.882812-7.558594 18.59375-8.117188 26.164062-1.234375.289063.265625.578125.546875.847656.824219 1.554688 1.605468 2.761719 3.429687 3.625 5.375 2.875 6.503906 1.851563 14.375-3.234374 19.96875zm0 0" fill="#deefff"/><path d="m391.398438 339.589844c-2.667969 2.933594-5.429688 5.777344-8.273438 8.507812 4.070312-9.488281 7.902344-18.984375 11.507812-28.472656 2.875 6.5 1.851563 14.371094-3.234374 19.964844zm0 0" fill="#b8daef"/></svg>