<svg height="512pt" viewBox="0 0 512 512" width="512pt" xmlns="http://www.w3.org/2000/svg"><path d="m512 30.90625v450.1875c0 17.070312-13.835938 30.90625-30.90625 30.90625h-450.1875c-17.070312 0-30.90625-13.835938-30.90625-30.90625v-450.1875c0-17.070312 13.835938-30.90625 30.90625-30.90625h450.1875c17.070312 0 30.90625 13.835938 30.90625 30.90625zm0 0" fill="#5bdc67"/><path d="m64.222656 512h-33.316406c-17.070312 0-30.90625-13.835938-30.90625-30.90625v-450.1875c0-17.070312 13.835938-30.90625 30.90625-30.90625h33.316406c-17.070312 0-30.90625 13.835938-30.90625 30.90625v450.1875c0 17.070312 13.835938 30.90625 30.90625 30.90625zm0 0" fill="#8cf490"/><path d="m512 30.90625v450.1875c0 17.070312-13.835938 30.90625-30.90625 30.90625h-199.03125c152.582031-175.789062 169.96875-420.992188 170.824219-512h28.207031c17.070312 0 30.90625 13.835938 30.90625 30.90625zm0 0" fill="#1fc474"/><g fill="#deefff"><path d="m228.308594 364.585938c-10.527344 0-19.0625-8.535157-19.0625-19.0625v-106.789063c0-10.53125 8.535156-19.0625 19.0625-19.0625s19.0625 8.53125 19.0625 19.0625v106.789063c0 10.527343-8.535156 19.0625-19.0625 19.0625zm0 0"/><path d="m175.691406 351.105469c7.445313-7.445313 7.445313-19.511719 0-26.957031l-42.105468-42.105469 27.890624-27.890625c7.445313-7.445313 7.445313-19.515625 0-26.960938-7.445312-7.441406-19.515624-7.441406-26.960937 0l-43.878906 43.882813v-104.597657c0-10.527343-8.535157-19.0625-19.066407-19.0625-10.527343 0-19.0625 8.535157-19.0625 19.0625v179.046876c0 10.527343 8.535157 19.0625 19.0625 19.0625 10.53125 0 19.066407-8.535157 19.066407-19.0625v-20.53125l15.988281-15.988282 42.105469 42.105469c7.445312 7.441406 19.515625 7.441406 26.960937-.003906zm0 0"/><path d="m401.625 351.105469c-5.808594 5.800781-14.421875 7.078125-21.46875 3.832031-1.988281-.917969-3.851562-2.195312-5.492188-3.832031l-42.101562-42.101563-15.988281 15.984375v20.535157c0 5.261718-2.132813 10.03125-5.582031 13.472656-3.453126 3.453125-8.222657 5.585937-13.484376 5.585937-10.53125 0-19.058593-8.53125-19.058593-19.058593v-179.054688c0-5.265625 2.128906-10.027344 5.582031-13.476562 3.449219-3.453126 8.210938-5.582032 13.476562-5.582032 10.527344 0 19.066407 8.527344 19.066407 19.058594v104.601562l43.875-43.882812c3.71875-3.71875 8.601562-5.574219 13.484375-5.574219 4.882812 0 9.757812 1.855469 13.476562 5.574219 7.449219 7.445312 7.449219 19.519531 0 26.957031l-27.886718 27.898438 42.105468 42.105469c7.445313 7.4375 7.445313 19.507812-.003906 26.957031zm0 0"/></g><path d="m401.625 351.105469c-5.808594 5.800781-14.421875 7.078125-21.46875 3.832031 5.441406-12.363281 10.488281-24.746094 15.15625-37.105469l6.3125 6.3125c7.449219 7.441407 7.449219 19.511719 0 26.960938zm0 0" fill="#b8daef"/><path d="m459.488281 281.917969c0 10.515625-8.523437 19.042969-19.039062 19.042969s-19.042969-8.527344-19.042969-19.042969 8.527344-19.039063 19.042969-19.039063 19.039062 8.523438 19.039062 19.039063zm0 0" fill="#b8daef"/></svg>