<svg id="Bold" enable-background="new 0 0 32 32" height="512" viewBox="0 0 32 32" width="512" xmlns="http://www.w3.org/2000/svg"><path d="m26 32h-20c-3.314 0-6-2.686-6-6v-20c0-3.314 2.686-6 6-6h20c3.314 0 6 2.686 6 6v20c0 3.314-2.686 6-6 6z" fill="#f5e6fe"/><path d="m16 8.333c-4.41 0-8 2.932-8 6.535 0 3.227 2.847 5.932 6.69 6.446.261.055.615.173.705.396.08.202.053.514.025.724l-.109.684c-.03.202-.16.796.699.433.861-.362 4.611-2.736 6.291-4.679 1.15-1.267 1.699-2.565 1.699-4.003 0-3.603-3.59-6.536-8-6.536zm-3.131 8.678h-1.591c-.23 0-.42-.191-.42-.422v-3.201c0-.231.19-.423.42-.423.232 0 .42.191.42.423v2.778h1.171c.232 0 .419.19.419.423 0 .231-.188.422-.419.422zm1.644-.421c0 .231-.188.422-.421.422-.23 0-.418-.191-.418-.422v-3.201c0-.231.188-.423.42-.423.231 0 .419.191.419.423zm3.827 0c0 .181-.116.342-.288.4-.043.014-.089.021-.133.021-.141 0-.261-.06-.34-.168l-1.629-2.225v1.972c0 .231-.186.422-.421.422-.231 0-.417-.191-.417-.422v-3.201c0-.181.115-.342.287-.399.04-.015.091-.022.129-.022.13 0 .25.07.33.17l1.641 2.234v-1.983c0-.231.188-.423.42-.423.23 0 .42.191.42.423v3.201zm2.57-2.024c.233 0 .42.191.42.423 0 .231-.187.423-.42.423h-1.17v.755h1.17c.233 0 .42.19.42.423 0 .231-.187.422-.42.422h-1.591c-.23 0-.418-.191-.418-.422v-3.201c0-.231.188-.423.42-.423h1.591c.231 0 .418.191.418.423 0 .234-.187.423-.42.423h-1.17v.755h1.17z" fill="#be63f9"/></svg>