<svg height="512pt" viewBox="0 0 512 512" width="512pt" xmlns="http://www.w3.org/2000/svg"><path d="m512 30.90625v450.1875c0 17.070312-13.835938 30.90625-30.90625 30.90625h-450.1875c-17.070312 0-30.90625-13.835938-30.90625-30.90625v-450.1875c0-17.070312 13.835938-30.90625 30.90625-30.90625h450.1875c17.070312 0 30.90625 13.835938 30.90625 30.90625zm0 0" fill="#deefff"/><path d="m64.222656 512h-33.316406c-17.070312 0-30.90625-13.835938-30.90625-30.90625v-450.1875c0-17.070312 13.835938-30.90625 30.90625-30.90625h33.316406c-17.070312 0-30.90625 13.835938-30.90625 30.90625v450.1875c0 17.070312 13.835938 30.90625 30.90625 30.90625zm0 0" fill="#f0f8ff"/><path d="m512 30.90625v450.1875c0 17.070312-13.835938 30.90625-30.90625 30.90625h-199.03125c152.582031-175.789062 169.96875-420.992188 170.824219-512h28.207031c17.070312 0 30.90625 13.835938 30.90625 30.90625zm0 0" fill="#b8daef"/><path d="m430.988281 254.949219c.339844 58.410156-27.609375 110.105469-71.105469 142.113281-8.640624 6.355469-17.894531 11.941406-27.660156 16.636719-22.496094 10.835937-47.726562 17.007812-74.449218 17.277343-33.460938.328126-64.777344-8.738281-91.492188-24.726562l-55.472656 10.097656c-7.078125 1.289063-13.269532-4.90625-11.980469-11.980468l9.816406-53.960938c-17.863281-27.816406-28.0625-61.019531-27.617187-96.632812 1.171875-94.671876 81.28125-173.285157 175.953125-172.761719 77.140625.414062 142.464843 50.757812 165.304687 120.347656 1.566406 4.78125 2.945313 9.652344 4.097656 14.609375 2.933594 12.523438 4.519532 25.578125 4.605469 38.980469zm0 0" fill="#5bdc67"/><path d="m430.988281 254.949219c.339844 58.410156-27.609375 110.105469-71.105469 142.113281 31.617188-60.316406 52.613282-122.902344 66.5-181.097656 2.933594 12.527344 4.519532 25.582031 4.605469 38.984375zm0 0" fill="#1fc474"/><path d="m160.613281 170.898438c-.320312 4.066406-1.90625 7.890624-4.007812 11.382812-3.863281 6.425781-4.746094 14.53125-1.667969 21.992188 14.160156 34.328124 34.75 65.140624 61.199219 91.59375 26.449219 26.445312 57.265625 47.035156 91.589843 61.191406 7.460938 3.082031 15.566407 2.199218 21.992188-1.664063 3.492188-2.101562 7.320312-3.6875 11.382812-4.007812 5.5-.433594 10.507813-4.375 11.714844-10.363281l5.839844-28.96875c1.101562-5.453126-1.355469-11.007813-6.136719-13.863282l-25.792969-15.402344c-4.777343-2.851562-10.835937-2.382812-15.117187 1.171876l-15.292969 12.703124c-16.480468-9.808593-31.710937-21.671874-45.507812-35.46875-13.800782-13.800781-25.660156-29.03125-35.472656-45.511718l12.703124-15.292969c3.554688-4.28125 4.023438-10.339844 1.171876-15.117187l-15.402344-25.792969c-2.851563-4.777344-8.410156-7.238281-13.863282-6.136719l-28.96875 5.839844c-5.988281 1.210937-9.929687 6.214844-10.363281 11.714844zm0 0" fill="#deefff"/></svg>