<svg height="512pt" viewBox="0 0 512 512" width="512pt" xmlns="http://www.w3.org/2000/svg"><path d="m512 30.90625v450.1875c0 17.070312-13.835938 30.90625-30.90625 30.90625h-450.1875c-17.070312 0-30.90625-13.835938-30.90625-30.90625v-450.1875c0-17.070312 13.835938-30.90625 30.90625-30.90625h450.1875c17.070312 0 30.90625 13.835938 30.90625 30.90625zm0 0" fill="#006fd3"/><path d="m64.222656 512h-33.316406c-17.070312 0-30.90625-13.835938-30.90625-30.90625v-450.1875c0-17.070312 13.835938-30.90625 30.90625-30.90625h33.316406c-17.070312 0-30.90625 13.835938-30.90625 30.90625v450.1875c0 17.070312 13.835938 30.90625 30.90625 30.90625zm0 0" fill="#439ef4"/><path d="m512 30.90625v450.1875c0 17.070312-13.835938 30.90625-30.90625 30.90625h-199.03125c152.582031-175.789062 169.96875-420.992188 170.824219-512h28.207031c17.070312 0 30.90625 13.835938 30.90625 30.90625zm0 0" fill="#0055d1"/><path d="m404.777344 404.777344c-17.890625 17.894531-41.238282 27.003906-64.671875 27.332031-6.511719.105469-13.035157-.484375-19.441407-1.742187-17.203124-3.378907-33.644531-11.628907-47.101562-24.742188-44.171875 5.148438-90.191406-9.210938-124.082031-43.105469-33.894531-33.882812-48.253907-79.898437-43.09375-124.074219-35.625-36.539062-35.347657-95.035156.835937-131.214843 36.1875-36.1875 94.683594-36.46875 131.214844-.84375 44.171875-5.152344 90.191406 9.210937 124.082031 43.101562 28.929688 28.917969 43.621094 66.675781 44.101563 104.574219.082031 6.511719-.257813 13.023438-1.007813 19.503906 1.277344 1.304688 2.503907 2.648438 3.6875 4.003906 31.875 36.695313 30.359375 92.328126-4.523437 127.207032zm0 0" fill="#439ef4"/><path d="m404.777344 404.777344c-17.890625 17.894531-41.238282 27.003906-64.671875 27.332031 30.511719-50.304687 52.859375-103.171875 69.195312-154.535156 31.875 36.691406 30.359375 92.324219-4.523437 127.203125zm0 0" fill="#1680f6"/><path d="m257.003906 381.015625c-43.308594 0-78.960937-17.792969-95.367187-47.59375-4.773438-8.667969-5.886719-19.101563-3.050781-28.625 2.789062-9.371094 9-17.015625 17.488281-21.527344 5.234375-2.785156 11.121093-4.253906 17.023437-4.253906.519532 0 1.035156.007813 1.550782.03125-3.214844-1.648437-6.382813-3.507813-9.464844-5.59375-21.617188-14.625-33.523438-36.113281-33.523438-60.519531 0-23.695313 11.816406-45.941406 32.414063-61.027344 18.683593-13.679688 43.539062-20.914062 71.886719-20.914062 43.308593 0 78.960937 17.792968 95.367187 47.597656 4.773437 8.667968 5.886719 19.101562 3.050781 28.625-2.789062 9.367187-9 17.015625-17.488281 21.527344-5.234375 2.78125-11.121094 4.253906-17.023437 4.253906-.511719 0-1.023438-.011719-1.53125-.03125 3.296874 1.695312 6.441406 3.558594 9.445312 5.59375 21.617188 14.621094 33.523438 36.117187 33.523438 60.519531 0 23.695313-11.816407 45.9375-32.414063 61.023437-18.679687 13.683594-43.539063 20.914063-71.886719 20.914063zm-40.984375-93.875c3.714844 3.023437 6.859375 6.804687 9.183594 11.203125 1.382813 2.609375 10.191406 10.066406 31.800781 10.066406 19.457032 0 28.988282-5.863281 31.253906-8.835937-.144531-.136719-.308593-.28125-.5-.4375-7.453124-6.082031-20.046874-6.464844-31.160156-6.800781-12.175781-.367188-26.363281-1.421876-40.578125-5.195313zm8.691407-74.703125c.164062.152344.359374.324219.589843.511719 7.601563 6.0625 19.105469 6.398437 31.289063 6.757812 2.71875.082031 5.53125.164063 8.3125.316407 11.714844.632812 22.332031 2.21875 31.964844 4.78125-3.683594-3.011719-6.796876-6.773438-9.105469-11.136719-1.382813-2.613281-10.191407-10.070313-31.800781-10.070313-19.453126 0-28.984376 5.867188-31.25 8.839844zm0 0" fill="#1680f6"/><path d="m257.003906 278.949219c13.644532.414062 28.453125 1.019531 39.226563 9.816406 3.128906 2.554687 5.863281 6.089844 5.863281 10.308594 0 11.019531-15.804688 22.730469-45.089844 22.730469-25.492187 0-39.441406-9.265626-43.640625-17.199219-5.921875-11.195313-19.8125-15.464844-31.003906-9.511719-11.335937 6.027344-15.183594 20.621094-8.992187 31.871094 14.027343 25.480468 45.195312 40.660156 83.636718 40.660156 25.480469 0 47.601563-6.335938 63.972656-18.328125 17.117188-12.535156 26.933594-30.839844 26.933594-50.222656 0-19.816407-9.8125-37.371094-27.632812-49.425781-16.519532-11.171876-36.488282-15.191407-56.101563-16.253907-15.925781-.863281-33.957031.609375-47.226562-9.976562-3.222657-2.570313-6.078125-6.167969-6.078125-10.484375 0-11.019532 15.800781-22.730469 45.085937-22.730469 25.492188 0 39.441407 9.265625 43.640625 17.199219 5.921875 11.199218 19.8125 15.464844 31.003906 9.515625 11.335938-6.027344 15.1875-20.625 8.996094-31.871094-14.03125-25.484375-45.199218-40.660156-83.640625-40.660156-25.480469 0-47.601562 6.335937-63.972656 18.328125-17.117187 12.535156-26.933594 30.839844-26.933594 50.21875 0 19.820312 9.8125 37.375 27.632813 49.425781 18.949218 12.816406 41.976562 15.917969 64.320312 16.589844zm0 0" fill="#deefff"/></svg>